HIERARCHY
ROOT Hips
{
	OFFSET 0.00000 0.00000 0.00000
	CHANNELS 6 Xposition Yposition Zposition Zrotation Yrotation Xrotation 
	JOINT LHipJoint
	{
		OFFSET 0 0 0
		CHANNELS 3 Zrotation Yrotation Xrotation
		JOINT LeftHip
		{
			OFFSET 3.13874 -1.57224 1.49786
			CHANNELS 3 Zrotation Yrotation Xrotation
			JOINT LeftKnee
			{
				OFFSET 2.10955 -5.79594 0.00000
				CHANNELS 3 Zrotation Yrotation Xrotation
				JOINT LeftAnkle
				{
					OFFSET 2.41843 -6.64458 0.00000
					CHANNELS 3 Zrotation Yrotation Xrotation
					JOINT LeftToe
					{
						OFFSET 0.04713 -0.12948 1.66229
						CHANNELS 3 Zrotation Yrotation Xrotation
						End Site
						{
							OFFSET 0.00000 -0.00000 0.85167
						}
					}
				}
			}
		}
	}
	JOINT RHipJoint
	{
		OFFSET 0 0 0
		CHANNELS 3 Zrotation Yrotation Xrotation
		JOINT RightHip
		{
			OFFSET -3.13988 -1.57224 1.49786
			CHANNELS 3 Zrotation Yrotation Xrotation
			JOINT RightKnee
			{
				OFFSET -2.15006 -5.90725 0.00000
				CHANNELS 3 Zrotation Yrotation Xrotation
				JOINT RightAnkle
				{
					OFFSET -2.34496 -6.44273 0.00000
					CHANNELS 3 Zrotation Yrotation Xrotation
					JOINT RightToe
					{
						OFFSET -0.08699 -0.23900 1.55223
						CHANNELS 3 Zrotation Yrotation Xrotation
						End Site
						{
							OFFSET -0.00000 -0.00000 0.80281
						}
					}
				}
			}
		}
	}
	JOINT lowerback
	{
		OFFSET 0 0 0
		CHANNELS 3 Zrotation Yrotation Xrotation
		JOINT Chest
		{
			OFFSET 0.01292 1.96517 -0.16495
			CHANNELS 3 Zrotation Yrotation Xrotation
			JOINT Chest2
			{
				OFFSET 0.02122 1.88666 0.19706
				CHANNELS 3 Zrotation Yrotation Xrotation
				JOINT lowerneck
				{
					OFFSET 0 0 0
					CHANNELS 3 Zrotation Yrotation Xrotation
					JOINT Neck
					{
						OFFSET -0.01683 1.81591 0.07903
						CHANNELS 3 Zrotation Yrotation Xrotation
						JOINT Head
						{
							OFFSET 0.00815 1.74013 -0.47700
							CHANNELS 3 Zrotation Yrotation Xrotation
							End Site
							{
								OFFSET -0.00204 1.83225 -0.16933
							}
						}
					}
				}
				JOINT LeftCollar
				{
					OFFSET 0 0 0
					CHANNELS 3 Zrotation Yrotation Xrotation
					JOINT LeftShoulder
					{
						OFFSET 3.38482 1.41533 0.19802
CHANNELS 3 Zrotation Xrotation Yrotation
						JOINT LeftElbow
						{
OFFSET 0 -4.327120 0.000000
CHANNELS 3 Zrotation Xrotation Yrotation
							JOINT LeftWrist
							{
OFFSET 0 -3.285870 -0.000000
CHANNELS 3 Zrotation Xrotation Yrotation
								JOINT lhand
								{
									OFFSET 0 0 0
CHANNELS 3 Zrotation Xrotation Yrotation
									JOINT LFingers
									{
OFFSET 0 -0.433160 -0.000000
CHANNELS 3 Zrotation Xrotation Yrotation
										End Site
										{
OFFSET 0 -0.349220 -0.000000
										}
									}
								}
								JOINT LThumb
								{
OFFSET 0 0.000000 0.000000
CHANNELS 3 Zrotation Xrotation Yrotation
									End Site
									{
OFFSET 0 -0.354560 0.354560
									}
								}
							}
						}
					}
				}
				JOINT RightCollar
				{
					OFFSET 0 0 0
					CHANNELS 3 Zrotation Yrotation Xrotation
					JOINT RightShoulder
					{
						OFFSET -3.09725 1.62858 -0.14144
CHANNELS 3 Zrotation Xrotation Yrotation
						JOINT RightElbow
						{
OFFSET 0 -4.291040 0.000000
CHANNELS 3 Zrotation Xrotation Yrotation
							JOINT RightWrist
							{
OFFSET 0 -3.227200 -0.000000
CHANNELS 3 Zrotation Xrotation Yrotation
								JOINT rhand
								{
									OFFSET 0 0 0
CHANNELS 3 Zrotation Xrotation Yrotation
									JOINT RFingers
									{
OFFSET 0 -0.543620 -0.000000
CHANNELS 3 Zrotation Xrotation Yrotation
										End Site
										{
OFFSET 0 -0.438280 -0.000000
										}
									}
								}
								JOINT RThumb
								{
OFFSET 0 0.000000 0.000000
CHANNELS 3 Zrotation Xrotation Yrotation
									End Site
									{
OFFSET 0 -0.444970 0.444970
									}
								}
							}
						}
					}
				}
			}
		}
	}
}
MOTION
Frames: 11
Frame Time: .0083333
26.5792 15.3803 13.6387 -179.4720 8.2727 -167.8020 0.0000 0.0000 0.0000 -19.7672 -29.8357 -31.4957 1.0744 6.5890 18.5033 0.0288 13.6970 -19.7970 8.6013 -16.5442 -54.7008 0.0000 0.0000 0.0000 35.5171 6.8118 17.4415 -0.0997 -2.0363 5.6060 -1.3730 -7.2638 -25.8328 -0.3291 3.6871 -10.1980 -4.4732 0.9344 12.8019 4.4114 2.6836 -13.5811 6.6949 3.1342 -23.8408 6.0734 1.9846 -10.0399 -10.6344 13.4809 40.2094 -2.7935 7.6125 17.8794 -0.0000 0.0000 0.0000 2.8018 32.4769 -10.5727 16.4144 -26.0793 3.8263 32.4075 19.7221 -24.2793 0.0 0.0 0.0 -7.1250 0.0 0.0 3.4598 58.0618 -1.1067 -0.0000 0.0000 0.0000 -24.2468 28.1314 53.0724 -17.0138 -26.876 -4.0936 -26.55 -4.0695 18.1757 0.0 0.0 0.0 7.1250 0.0 -0.0 1.5285 50.1276 -0.1932
26.5767 15.4101 13.3411 -179.4310 8.0894 -168.1920 0.0000 0.0000 0.0000 -20.9431 -28.5813 -30.9379 1.2741 7.1539 20.1722 0.1572 11.7744 -18.7475 8.5038 -16.4776 -54.3576 0.0000 0.0000 0.0000 34.2592 4.6725 16.2438 -0.2138 -2.9766 8.2137 -1.0614 -6.2248 -22.6533 -0.2359 3.1259 -8.6295 -4.1033 0.8972 12.8080 4.4927 2.7496 -13.5609 6.5495 3.1096 -23.8133 5.9779 1.8935 -9.8316 -10.7236 13.5835 40.3548 -2.7955 7.6859 17.9332 -0.0000 -0.0000 0.0000 2.7533 32.6278 -11.4438 16.7026 -26.464 3.9539 32.4518 19.404 -24.5794 0.0 0.0 0.0 -7.1250 0.0 0.0 3.4451 58.4064 -1.1305 -0.0000 -0.0000 0.0000 -24.4607 28.5392 52.5349 -17.0290 -26.8961 -4.1005 -26.2225 -4.3373 18.3307 0.0 0.0 0.0 7.1250 0.0 -0.0 1.8859 50.2406 -0.2437
26.5744 15.4412 13.0513 -179.5460 7.8708 -168.6620 0.0000 0.0000 0.0000 -22.3155 -27.2620 -30.3783 1.5059 7.7506 21.9591 0.3299 9.4022 -18.0397 8.3360 -16.3609 -53.7641 0.0000 0.0000 0.0000 32.6407 2.3325 14.5723 -0.4067 -4.0942 11.3420 -0.5300 -7.3770 -18.3851 -0.6392 5.1149 -14.2365 -3.8438 0.8382 12.9701 4.5085 2.7297 -13.5514 6.4197 3.0583 -23.8972 5.9962 1.7840 -9.5710 -10.8993 13.6678 40.4864 -2.8639 7.7649 17.9832 0.0000 -0.0000 0.0000 2.5614 32.8424 -11.4446 17.0184 -26.8821 4.0957 32.8745 20.135 -24.3879 0.0 0.0 0.0 -7.1250 0.0 0.0 3.9818 58.2961 -1.2964 0.0000 -0.0000 0.0000 -24.5205 28.8367 51.7822 -16.9548 -26.7982 -4.0669 -26.1126 -4.3142 18.2703 0.0 0.0 0.0 7.1250 0.0 -0.0 1.9826 50.1564 -0.2521
26.5693 15.4737 12.7636 -179.8440 7.6746 -169.2610 0.0000 0.0000 0.0000 -24.0301 -26.3868 -28.2390 1.4752 7.6748 21.7307 0.4523 7.8319 -17.9130 7.8854 -16.0343 -52.1487 0.0000 0.0000 0.0000 30.6823 -0.1128 12.5951 -0.7127 -5.3954 15.0398 -0.0370 -8.9900 -13.4644 -0.9400 6.1754 -17.2943 -3.7386 0.7751 13.2903 4.4620 2.6388 -13.5500 6.3310 2.9945 -24.0979 6.1000 1.6720 -9.2402 -11.0904 13.7408 40.6194 -2.9603 7.8574 18.0231 -0.0000 0.0000 0.0000 2.8542 32.8516 -12.6647 16.9827 -26.835 4.0795 32.8798 19.2715 -24.2174 0.0 0.0 0.0 -7.1250 0.0 0.0 4.0234 58.1069 -1.2917 -0.0000 0.0000 0.0000 -24.465 29.0589 50.8239 -16.7958 -26.5878 -3.9955 -26.1979 -4.1584 18.0552 0.0 0.0 0.0 7.1250 0.0 -0.0 1.8540 49.9371 -0.2257
26.5615 15.5129 12.4777 -180.2340 7.5305 -169.9350 0.0000 0.0000 0.0000 -25.7570 -25.7997 -25.6052 1.3879 7.4539 21.0672 0.6247 6.2329 -18.4886 7.2635 -15.5498 -49.8639 0.0000 0.0000 0.0000 28.6372 -2.2545 10.4053 -1.1899 -6.9221 19.4847 0.2782 -10.5209 -9.1112 -0.4871 4.4752 -12.4176 -3.7294 0.7583 13.5552 4.4025 2.5592 -13.4582 6.2811 2.9324 -24.1349 6.2627 1.5249 -9.0529 -11.3819 13.8069 40.8070 -3.1116 7.9410 18.1541 -0.0000 0.0000 0.0000 3.0629 32.7009 -13.1981 16.9942 -26.8502 4.0847 32.5487 18.6969 -23.7429 0.0 0.0 0.0 -7.1250 0.0 0.0 3.7360 57.4973 -1.1444 -0.0000 0.0000 0.0000 -24.3501 29.0703 49.3561 -16.6163 -26.3491 -3.9155 -26.2432 -4.3907 17.5048 0.0 0.0 0.0 7.1250 0.0 -0.0 1.7011 49.3457 -0.1823
26.5566 15.5560 12.2023 -180.5820 7.4017 -170.5550 0.0000 0.0000 0.0000 -27.2401 -25.2045 -22.9982 1.2874 7.1898 20.2790 0.8021 4.4322 -19.0916 6.6775 -15.0542 -47.6439 0.0000 0.0000 0.0000 26.8967 -3.7706 7.9580 -1.8718 -8.5939 24.5329 0.5170 -12.6592 -5.7848 -0.1218 2.2496 -6.1961 -3.9256 0.7095 13.9701 4.4942 2.4374 -13.4322 6.5502 2.9332 -24.3978 6.2360 1.4121 -8.7587 -11.5731 13.9129 40.9499 -3.1776 8.0260 18.2082 -0.0000 0.0000 0.0000 3.0916 32.6795 -13.79 16.9476 -26.7886 4.0637 32.4471 18.355 -23.4224 0.0 0.0 0.0 -7.1250 0.0 0.0 3.6833 57.1153 -1.0943 -0.0000 0.0000 0.0000 -24.6207 29.1685 48.1641 -16.5704 -26.288 -3.8952 -26.3121 -4.9352 16.9601 0.0 0.0 0.0 7.1250 0.0 -0.0 1.5321 48.763 -0.1422
26.5537 15.5959 11.9380 -180.9880 7.3229 -171.1290 0.0000 0.0000 0.0000 -28.7212 -24.2060 -20.7162 1.1942 6.9343 19.5208 0.8800 3.1646 -19.1351 6.5469 -14.9382 -47.1390 0.0000 0.0000 0.0000 25.2932 -4.8476 5.3024 -2.7251 -10.2361 29.7446 0.7424 -15.4105 -2.1771 -0.0871 1.9034 -5.2389 -4.0246 0.7327 14.1509 4.4218 2.3581 -13.2551 6.5501 2.8705 -24.2538 6.0824 1.3818 -8.7098 -11.3931 13.7479 40.9102 -3.1021 7.9417 18.1029 -0.0000 0.0000 0.0000 3.5231 32.1652 -14.8751 16.9775 -26.8281 4.0772 32.2931 17.843 -23.4423 0.0 0.0 0.0 -7.1250 0.0 0.0 3.5034 57.1014 -1.0396 -0.0000 0.0000 0.0000 -24.4667 28.9232 47.0618 -16.5775 -26.2975 -3.8983 -26.713 -4.8207 17.1054 0.0 0.0 0.0 7.1250 0.0 -0.0 1.1661 48.9857 -0.1146
26.5491 15.6259 11.6818 -181.4990 7.3227 -171.7340 0.0000 0.0000 0.0000 -30.3248 -23.1780 -18.4508 1.0787 6.6016 18.5402 0.9146 2.4579 -19.1116 6.5327 -14.9254 -47.0838 0.0000 0.0000 0.0000 23.7116 -5.6851 2.5607 -3.6795 -11.7212 34.7528 0.8819 -18.2330 1.8818 -0.1553 2.5396 -6.9995 -4.2694 0.7166 14.4762 4.3358 2.1840 -13.1327 6.6551 2.8027 -24.2826 6.1793 1.3697 -8.5441 -11.4230 13.7218 40.9067 -3.1453 7.9550 18.0633 0.0000 0.0000 0.0000 3.7963 31.7664 -15.02 17.0652 -26.9437 4.1168 31.525 17.9469 -23.4643 0.0 0.0 0.0 -7.1250 0.0 0.0 2.6254 56.947 -0.769 0.0000 0.0000 0.0000 -24.3322 28.6958 46.3857 -16.5837 -26.3057 -3.9011 -27.3597 -4.3737 17.349 0.0 0.0 0.0 7.1250 0.0 -0.0 0.5726 49.3582 -0.0615
26.5508 15.6499 11.4389 -182.1150 7.4055 -172.2470 0.0000 0.0000 0.0000 -31.8103 -22.2210 -16.5311 0.9861 6.3207 17.7177 0.9572 1.6765 -19.1596 6.4120 -14.8161 -46.6138 0.0000 0.0000 0.0000 22.3105 -6.0788 -0.4378 -4.7203 -13.0617 39.6001 0.9284 -20.8917 5.6678 -0.2514 3.2260 -8.9085 -4.6424 0.7268 14.8394 4.1542 1.9844 -13.0326 6.7314 2.7342 -24.3625 6.3423 1.4148 -8.4728 -11.4049 13.7405 40.9240 -3.1675 7.9902 18.0680 0.0000 -0.0000 0.0000 4.0539 31.3404 -14.6409 17.2563 -27.1945 4.2038 30.0622 18.0514 -23.1432 0.0 0.0 0.0 -7.1250 0.0 0.0 1.0606 56.2596 -0.2929 0.0000 -0.0000 0.0000 -24.0558 28.4369 45.5289 -16.6340 -26.3728 -3.9234 -27.622 -4.8328 17.08 0.0 0.0 0.0 7.1250 0.0 -0.0 0.2687 49.1052 -0.0272
26.5578 15.6604 11.2197 -181.6420 7.3907 -172.6750 0.0000 0.0000 0.0000 -31.8447 -21.2903 -15.1647 0.9511 6.2106 17.3967 1.0007 0.8498 -19.2290 6.3041 -14.7167 -46.1904 0.0000 0.0000 0.0000 22.5108 -6.0763 -3.5320 -5.8105 -14.2422 44.2164 1.1085 -21.5055 4.2412 -1.1136 6.7041 -18.8416 -4.0729 0.6369 15.4854 4.3433 2.0055 -12.9150 6.6164 2.6638 -24.6486 6.4205 1.4853 -8.3699 -11.4310 13.8359 40.8958 -3.1802 8.0402 18.0499 0.0000 -0.0000 0.0000 3.9193 31.3368 -14.4121 17.9493 -28.0922 4.5253 29.6086 18.2596 -23.8556 0.0 0.0 0.0 -7.1250 0.0 0.0 0.3732 56.9386 -0.1092 0.0000 -0.0000 0.0000 -24.0192 28.184 45.0477 -16.8358 -26.6408 -4.0134 -27.5202 -5.9197 17.0591 0.0 0.0 0.0 7.1250 0.0 -0.0 0.3655 49.0656 -0.0366
26.5707 15.6701 11.0112 -181.8170 7.4599 -172.8720 0.0000 0.0000 0.0000 -32.4665 -21.0318 -13.8769 0.9255 6.1288 17.1587 1.1044 -0.5779 -19.6862 5.7679 -14.1996 -44.0428 0.0000 0.0000 0.0000 22.1305 -5.7649 -6.9826 -6.8454 -15.2003 48.2872 1.5410 -22.8099 0.1050 -0.8335 5.8242 -16.2750 -4.0724 0.6243 15.8349 4.2354 1.9228 -12.8781 6.5191 2.6056 -24.8203 6.5903 1.5052 -8.3313 -11.4346 13.7897 40.8780 -3.2267 8.0386 18.0340 -0.0000 0.0000 0.0000 4.6701 30.8633 -15.3807 18.4854 -28.7743 4.7806 29.4309 17.5536 -24.134 0.0 0.0 0.0 -7.1250 0.0 0.0 0.0978 57.2019 -0.0292 -0.0000 0.0000 0.0000 -23.7239 27.9728 44.5621 -17.0995 -26.9887 -4.1324 -27.5778 -6.6798 17.2464 0.0 0.0 0.0 7.1250 0.0 -0.0 0.3400 49.2813 -0.0359
